<svg id="Layer_1" data-name="Layer 1" xmlns="http://www.w3.org/2000/svg" viewBox="0 0 3690.12 848.39"><title>Logo Color</title><path d="M556.08,553.44A44.58,44.58,0,0,1,516,578.36H335.82a44.65,44.65,0,0,1-35.41-71.86L390.5,389.2a44.65,44.65,0,0,1,70.85,0l90.09,117.3A44.56,44.56,0,0,1,556.08,553.44Z" transform="translate(-1.72 0)" fill="#ef3d5b"/><path d="M635.8,149.53a15.45,15.45,0,0,1-4.24-10.64V49A15.47,15.47,0,0,1,647,33.51h123.9A15.48,15.48,0,0,1,786.42,49V263.46a15.49,15.49,0,0,1-26.73,10.66Z" transform="translate(-1.72 0)" fill="#23355a"/><path d="M850.13,423.67V806.21A42.19,42.19,0,0,1,808,848.38H607.77a42.17,42.17,0,1,1,0-84.34h158v-323l-338-339.31L86.07,440.38V764H383.75V585.87a41.38,41.38,0,0,1,.67-7.51h83a42.29,42.29,0,0,1,.67,7.51V806.21a42.19,42.19,0,0,1-42.18,42.17h-382A42.18,42.18,0,0,1,1.72,806.21V422.79a42.3,42.3,0,0,1,12.48-30L398.35,12.21a42.18,42.18,0,0,1,59.58.21L837.81,393.9A42.1,42.1,0,0,1,850.13,423.67Z" transform="translate(-1.72 0)" fill="#23355a"/><path id="Houzillo_Property_Finding_Partner" data-name="Houzillo Property Finding Partner" d="M1351.39,35.11V245.37H1151.58V35.11h-98.22V524.35h98.22V320.81h199.81V524.35h97.85V35.11ZM1649,259.94q18.3-29.5,55.27-29.51t55.28,29.32q18.29,29.33,18.3,80.11V347q0,51.54-18.12,80.67t-55.46,29.14q-37.33,0-55.46-28.95T1630.73,347v-7.1Q1630.73,289.43,1649,259.94ZM1578.82,481.4q45.93,50.8,125.67,50.8t125.67-50.8q45.94-50.79,45.94-134.45v-7.09q0-83.28-46.13-134.26t-125.85-51q-79.75,0-125.49,51t-45.75,134.26V347Q1532.88,430.62,1578.82,481.4Zm595.3-8.59,8.59,52.29h83.66V161.34h-98.22V426.13Q2146.47,456,2100.55,456q-27.27,0-40.34-17.55t-13.09-56.77V161.34h-97.46v219.6q0,76.56,31.56,113.91t90.57,37.34q67.23,0,102.33-59.39h0ZM2465,448.91,2639.45,216.6v-56H2348.51v76.19H2516.2L2343.28,466.47v57.88h302.14V448.91ZM2727.2,160.59V524.35h98.22V160.59ZM2727.2,0V73.57h98.22V0Zm199.05,0V524.35h98.22V0h-98.22Zm199,0V524.35h98.22V0Zm295,259.93q18.3-29.49,55.27-29.5t55.28,29.31q18.28,29.33,18.3,80.11V347q0,51.54-18.12,80.67t-55.46,29.13q-37.34,0-55.46-28.94T3402,347v-7.09q0-50.43,18.3-79.92ZM3350.1,481.4q45.93,50.8,125.67,50.8t125.67-50.8q45.95-50.79,45.94-134.45v-7.09q0-83.28-46.12-134.26t-125.86-51q-79.74,0-125.49,51t-45.74,134.26V347Q3304.17,430.62,3350.1,481.4ZM1071.5,633.72h-41.63V794.31h18.68V731.15h18.89q31,0,47.62-13.13a45,45,0,0,0,16.65-37.51q0-46.8-60.2-46.79h0Zm-22.94,16.14h20.87q22.08,0,32.52,7.8a27.73,27.73,0,0,1,10.43,23.73q0,17.68-11.09,25.7t-35.92,8h-16.81V649.86Zm152.67,28.23a53,53,0,0,0-16.17,18.13h-.88l-2.08-22.29h-15V794.31h18.23V729.72a43.27,43.27,0,0,1,10.38-29.55,32.06,32.06,0,0,1,25-11.86,61.6,61.6,0,0,1,13.18,1.65l2.53-16.92a71,71,0,0,0-14.4-1.32,36.37,36.37,0,0,0-20.76,6.37Zm151.18,10.44a50.92,50.92,0,0,0-40.15-16.81q-26.15,0-40.86,16.42T1256.69,734a75.83,75.83,0,0,0,6.81,33.17,50,50,0,0,0,19.35,21.75,54.29,54.29,0,0,0,28.67,7.58q26.14,0,41-16.53t14.85-46q-.06-28.68-14.91-45.49ZM1284.69,699a32.08,32.08,0,0,1,27-11.75,32.63,32.63,0,0,1,27.41,11.92q9.27,11.91,9.28,34.87,0,23.18-9.28,35.21a36.62,36.62,0,0,1-51.72,2.55c-.91-.83-1.78-1.7-2.6-2.61q-9.22-12.07-9.23-35.15,0-23.28,9.13-35Zm211.83,81.12q13.24-16.41,13.23-46.08t-13-45.91a44.49,44.49,0,0,0-37-16.37,49.82,49.82,0,0,0-21.42,4.39A42.35,42.35,0,0,0,1422,690.39h-.9l-2.52-16.47h-14.85V848.35H1422V798.81a162.87,162.87,0,0,0-1.32-20H1422a40.38,40.38,0,0,0,16.31,13.34,52.16,52.16,0,0,0,21.47,4.34,44.55,44.55,0,0,0,36.79-16.42ZM1482,699.24q8.85,12,8.84,34.54,0,22.2-8.84,34.82a28.22,28.22,0,0,1-24.44,12.64q-18.67,0-27.13-10.93T1422,734v-4q.23-22.31,8.46-32.52t26.69-10.21a29.07,29.07,0,0,1,24.89,12Zm135.77,95.45a96.61,96.61,0,0,0,18.29-6V772.45a97.16,97.16,0,0,1-38.45,8.13,37,37,0,0,1-28.62-11q-10.15-11-10.71-32.18h82.94V725.87a57.08,57.08,0,0,0-13.19-39.27,45.41,45.41,0,0,0-35.81-14.88,47.61,47.61,0,0,0-38.5,17.14q-14.33,17.13-14.33,46.24,0,28.89,15.43,45.15T1597,796.5a102.46,102.46,0,0,0,20.83-1.81Zm-3.8-98.53a40,40,0,0,1,7.69,26.42h-62.92a43.55,43.55,0,0,1,10.16-26.15A29.8,29.8,0,0,1,1592,687a27.08,27.08,0,0,1,22,9.18Zm97-18.07a52.89,52.89,0,0,0-16.14,18.12H1694l-2.09-22.3h-15.05v120.4h18.24V729.72a43.22,43.22,0,0,1,10.38-29.55,32,32,0,0,1,25-11.86,61.77,61.77,0,0,1,13.19,1.65l2.52-16.92a71,71,0,0,0-14.4-1.32,36.36,36.36,0,0,0-20.74,6.37Zm86.88,97.54a24.41,24.41,0,0,1-5.16-16.7V688.09h34.94V673.92H1792.7V646h-10.54l-7.69,25.71-17.25,7.57v8.79h17.24v71.62q0,36.79,34.94,36.79a64.6,64.6,0,0,0,10.38-.93,33.12,33.12,0,0,0,8.73-2.36v-14a64.2,64.2,0,0,1-16.48,2.2,18,18,0,0,1-14.17-5.82ZM1886.5,795l-6.7,17.14q-8,21.09-26.81,21.09a63.7,63.7,0,0,1-13.49-1.32V846.5a73.65,73.65,0,0,0,16.48,1.87,38.19,38.19,0,0,0,25.19-8.52,68.38,68.38,0,0,0,18-28.83l51.74-137.09h-19.55q-25.26,69.87-29.82,83.43t-6,19.17h-.9a261.92,261.92,0,0,0-10.76-33.95l-26.37-68.65h-19.55Zm172.77-69.29h66.59V709.11h-66.59V650.3h70.85V633.72h-89.54V794.31h18.68V725.69ZM2176.7,674h-18.24V794.31h18.24V674ZM2160,650.5a11.16,11.16,0,0,0,15.27,0,12.12,12.12,0,0,0,3.19-9.18,11.92,11.92,0,0,0-3.19-9.11,11.39,11.39,0,0,0-15.27-.06,12.1,12.1,0,0,0-3.07,9.17,12.31,12.31,0,0,0,3.09,9.15Zm160.5,143.81V715.77q0-23.07-11-33.56t-32.73-10.49a51.09,51.09,0,0,0-22.49,4.89,37.17,37.17,0,0,0-15.71,13.78h-.88l-3-16.47h-14.85V794.31h18.24V731.15q0-23.5,8.79-33.72t27.68-10.22a27.27,27.27,0,0,1,21,7.25,31.45,31.45,0,0,1,6.7,22v77.88h18.23Zm126.32,0h14.84V623.39h-18.25v49l.45,8.46.77,8.68h-1.43a43.78,43.78,0,0,0-37.56-17.8,44.39,44.39,0,0,0-36.7,16.48q-13.17,16.47-13.17,46.24t13.12,45.92a44.71,44.71,0,0,0,36.75,16.14q25.16,0,37.79-18.34h1Zm-63.71-24.83q-8.46-11.75-8.46-34.82,0-22.74,8.51-35.21A27.9,27.9,0,0,1,2407.71,687q18.67,0,27.19,10.93t8.51,36.52v3.85q0,22.62-8.4,32.78t-27.08,10.17a28.64,28.64,0,0,1-24.82-11.76ZM2523,673.92H2504.8V794.31H2523V673.92Zm-16.69-23.45a11.17,11.17,0,0,0,15.27,0,12.08,12.08,0,0,0,3.18-9.18,11.87,11.87,0,0,0-3.18-9.11,11.38,11.38,0,0,0-15.27-.06,12.11,12.11,0,0,0-3.08,9.17,12.35,12.35,0,0,0,3.09,9.18Zm160.49,143.84V715.77q0-23.07-11-33.56t-32.73-10.49a51.16,51.16,0,0,0-22.5,4.89,37.29,37.29,0,0,0-15.71,13.78h-.9l-3-16.47h-14.85V794.31h18.24V731.15q0-23.5,8.78-33.72t27.68-10.22a27.27,27.27,0,0,1,21,7.25,31.44,31.44,0,0,1,6.71,22v77.88h18.25Zm98.85-120.39a61.14,61.14,0,0,0-17-2.2q-21.75,0-33.62,10.71a39,39,0,0,0-11.86,30.48,38.43,38.43,0,0,0,5.88,21.09,32.52,32.52,0,0,0,15.19,13.07,37,37,0,0,0-11.09,9.55,19.39,19.39,0,0,0-3.52,11.53,17.19,17.19,0,0,0,3.15,10.22,19.05,19.05,0,0,0,7.75,6.48,35.86,35.86,0,0,0-19.78,10.88,27.85,27.85,0,0,0-7,19,28.37,28.37,0,0,0,12.79,24.83q12.79,8.78,36.41,8.78,30.76,0,46.8-10.49a34.19,34.19,0,0,0,16-30.48,28.62,28.62,0,0,0-10.49-24q-10.49-8.24-30-8.23h-21.31a29.8,29.8,0,0,1-13.95-2.37,7.87,7.87,0,0,1-4.05-7.3q0-9.35,11.65-15.49a55.12,55.12,0,0,0,10.1.88,48.75,48.75,0,0,0,33.17-10.54,35.6,35.6,0,0,0,12.09-28.24,39.14,39.14,0,0,0-7.91-24l22.3-2.64V673.91h-41.65Zm-47.45,123.57a28.8,28.8,0,0,1,19.35-5.93h21.85q16.7,0,22.74,3.79a14.75,14.75,0,0,1,6,13.57,21,21,0,0,1-11,18.61q-11,6.87-34,6.87a45.44,45.44,0,0,1-23.62-5,16.36,16.36,0,0,1-8.24-14.85,21.2,21.2,0,0,1,6.91-17Zm9.9-105.56a26.78,26.78,0,0,1,19.79-6.92q27,0,27,27.13,0,25.93-26.7,25.93a28.54,28.54,0,0,1-19.88-6.48,24.53,24.53,0,0,1-7.14-19.11,27.93,27.93,0,0,1,6.88-20.55Zm215.73-58.21h-41.63V794.31h18.67V731.15h18.9q31,0,47.62-13.13a45,45,0,0,0,16.64-37.51q0-46.8-60.19-46.79h0Zm-23,16.14h20.87q22.08,0,32.52,7.8a27.73,27.73,0,0,1,10.43,23.73q0,17.68-11.09,25.7t-35.92,8h-16.85V649.88Zm206,144.45V712.14q0-21.09-10.38-30.64t-31.92-9.57a84.8,84.8,0,0,0-21.26,2.74,85.74,85.74,0,0,0-19.49,7.58l5.6,14a79.51,79.51,0,0,1,34.05-9.23,25.1,25.1,0,0,1,19.5,6.75,30.54,30.54,0,0,1,6.1,20.93v7.47l-20.43.65q-58.34,1.77-58.33,38.25a33.66,33.66,0,0,0,10.16,26.25,40.2,40.2,0,0,0,28.06,9.22,54.69,54.69,0,0,0,22.36-4,50.73,50.73,0,0,0,18-15.32h.88l3.62,17.14Zm-71.46-18a18.77,18.77,0,0,1-6-15,20.37,20.37,0,0,1,9.61-18.62q9.6-6,31.36-6.75l18.23-.77V746a34.54,34.54,0,0,1-9.72,26.14,37,37,0,0,1-26.75,9.34,24.79,24.79,0,0,1-16.73-5.17Zm147.68-98.2A53,53,0,0,0,3187,696.23h-.89l-2.09-22.3H3169V794.31h18.23V729.72a43.27,43.27,0,0,1,10.38-29.55,32.06,32.06,0,0,1,25-11.86,61.51,61.51,0,0,1,13.17,1.65l2.53-16.92a70.91,70.91,0,0,0-14.39-1.32,36.35,36.35,0,0,0-20.72,6.37Zm86.89,97.54a24.35,24.35,0,0,1-5.17-16.69V688.09h34.93V673.92h-34.93V646h-10.54l-7.69,25.71-17.24,7.57v8.79h17.24v71.62q0,36.79,34.93,36.79a64.5,64.5,0,0,0,10.38-.93,33.12,33.12,0,0,0,8.73-2.36v-14a64.2,64.2,0,0,1-16.47,2.2,18,18,0,0,1-14.16-5.82Zm159.83,18.66V715.77q0-23.07-11-33.56t-32.74-10.49a51.12,51.12,0,0,0-22.49,4.89A37.17,37.17,0,0,0,3368,690.39h-.88l-3-16.47h-14.84V794.31h18.23V731.15q0-23.5,8.79-33.72T3404,687.21a27.28,27.28,0,0,1,21,7.25,31.38,31.38,0,0,1,6.7,22v77.88Zm113.63.38a96.38,96.38,0,0,0,18.29-6V772.45a97.12,97.12,0,0,1-38.45,8.13,37,37,0,0,1-28.61-11q-10.17-11-10.71-32.18H3587V725.87a57.05,57.05,0,0,0-13.18-39.27A45.43,45.43,0,0,0,3538,671.72a47.61,47.61,0,0,0-38.5,17.14q-14.34,17.13-14.33,46.24,0,28.89,15.43,45.15t42.12,16.25a102.36,102.36,0,0,0,20.82-1.81Zm-3.79-98.53a40.1,40.1,0,0,1,7.69,26.42h-62.94a43.55,43.55,0,0,1,10.16-26.15,29.77,29.77,0,0,1,23.12-9.45,27.06,27.06,0,0,1,22,9.18Zm97-18.07a53,53,0,0,0-16.15,18.12h-.9l-2.09-22.3h-15.05v120.4h18.24V729.72a43.27,43.27,0,0,1,10.38-29.55,32,32,0,0,1,25-11.86,61.6,61.6,0,0,1,13.18,1.65l2.53-16.92a71.73,71.73,0,0,0-14.4-1.32,36.41,36.41,0,0,0-20.73,6.37Z" transform="translate(-1.72 0)" fill="#24365b" fill-rule="evenodd"/></svg>